<?xml version="1.0" encoding="UTF-8" standalone="no"?>
<!-- Created with Inkscape (http://www.inkscape.org/) -->

<svg
   xmlns:dc="http://purl.org/dc/elements/1.1/"
   xmlns:cc="http://creativecommons.org/ns#"
   xmlns:rdf="http://www.w3.org/1999/02/22-rdf-syntax-ns#"
   xmlns:svg="http://www.w3.org/2000/svg"
   xmlns="http://www.w3.org/2000/svg"
   xmlns:sodipodi="http://sodipodi.sourceforge.net/DTD/sodipodi-0.dtd"
   xmlns:inkscape="http://www.inkscape.org/namespaces/inkscape"
   version="1.1"
   width="181.37"
   height="181.37"
   id="svg2"
   xml:space="preserve"
   inkscape:version="0.48.4 r9939"
   sodipodi:docname="Logo_European_Pirate_Party_notext.svg"
   inkscape:export-filename="/home/smari/Projects/Piratar/PPEU/visual-assets/Logo_European_Pirate_Party_notext.png"
   inkscape:export-xdpi="90"
   inkscape:export-ydpi="90"><sodipodi:namedview
     pagecolor="#ffffff"
     bordercolor="#666666"
     borderopacity="1"
     objecttolerance="10"
     gridtolerance="10"
     guidetolerance="10"
     inkscape:pageopacity="0"
     inkscape:pageshadow="2"
     inkscape:window-width="640"
     inkscape:window-height="480"
     id="namedview76"
     showgrid="false"
     inkscape:zoom="0.71247184"
     inkscape:cx="204.92038"
     inkscape:cy="145.42432"
     inkscape:window-x="0"
     inkscape:window-y="24"
     inkscape:window-maximized="0"
     inkscape:current-layer="svg2" /><metadata
     id="metadata8"><rdf:RDF><cc:Work
         rdf:about=""><dc:format>image/svg+xml</dc:format><dc:type
           rdf:resource="http://purl.org/dc/dcmitype/StillImage" /><dc:title></dc:title></cc:Work></rdf:RDF></metadata><defs
     id="defs6"><clipPath
       id="clipPath18"><path
         d="m 0,0 841.89,0 0,595.276 L 0,595.276 0,0 z"
         id="path20"
         inkscape:connector-curvature="0" /></clipPath><clipPath
       id="clipPath50"><path
         d="m 0,0 841.89,0 0,595.276 L 0,595.276 0,0 z"
         id="path52"
         inkscape:connector-curvature="0" /></clipPath><clipPath
       id="clipPath122"><path
         d="m 0,0 841.89,0 0,595.276 L 0,595.276 0,0 z"
         id="path124"
         inkscape:connector-curvature="0" /></clipPath></defs><g
     id="g3193"
     transform="translate(0,0.00499939)"><g
       transform="matrix(1.25,0,0,-1.25,-321.26087,462.72975)"
       id="g14"><g
         clip-path="url(#clipPath18)"
         id="g16"><g
           transform="translate(386.0987,297.6378)"
           id="g22"><path
             d="m 0,0 c 0,-31.228 -25.314,-56.546 -56.547,-56.546 -31.227,0 -56.543,25.318 -56.543,56.546 0,31.229 25.316,56.546 56.543,56.546 C -25.314,56.546 0,31.229 0,0"
             id="path24"
             style="fill:#ffffff;fill-opacity:1;fill-rule:nonzero;stroke:none"
             inkscape:connector-curvature="0" /></g><g
           transform="translate(383.1153,297.6378)"
           id="g26"><path
             d="m 0,0 c 0,-29.582 -23.981,-53.563 -53.564,-53.563 -29.58,0 -53.562,23.981 -53.562,53.563 0,29.582 23.982,53.562 53.562,53.562 C -23.981,53.562 0,29.582 0,0"
             id="path28"
             style="fill:#254aa5;fill-opacity:1;fill-rule:nonzero;stroke:none"
             inkscape:connector-curvature="0" /></g></g></g><g
       transform="matrix(1.25,0,0,-1.25,95.37988,114.59)"
       id="g30"><path
         d="M 0,0 -30.347,-21.691 -19.095,13.873 -49.1,36.029 -11.802,36.319 0,71.703 11.802,36.319 49.1,36.029 19.095,13.873 30.347,-21.691 0,0 z"
         id="path32"
         style="fill:#fff200;fill-opacity:1;fill-rule:nonzero;stroke:none"
         inkscape:connector-curvature="0" /></g><g
       transform="matrix(1.25,0,0,-1.25,37.507505,109.74363)"
       id="g34"><path
         d="M 0,0 -8.498,-6.073 -5.347,3.885 -13.75,10.09 -3.305,10.171 0,20.078 3.306,10.171 13.749,10.09 5.347,3.885 8.498,-6.073 0,0 z"
         id="path36"
         style="fill:#fff200;fill-opacity:1;fill-rule:nonzero;stroke:none"
         inkscape:connector-curvature="0" /></g><g
       transform="matrix(1.25,0,0,-1.25,139.94038,119.05288)"
       id="g38"><path
         d="M 0,0 -5.946,-4.251 -3.742,2.72 -9.624,7.062 -2.313,7.119 0,14.053 2.313,7.119 9.623,7.062 3.742,2.72 5.948,-4.251 0,0 z"
         id="path40"
         style="fill:#fff200;fill-opacity:1;fill-rule:nonzero;stroke:none"
         inkscape:connector-curvature="0" /></g><g
       transform="matrix(1.25,0,0,-1.25,121.45288,48.136125)"
       id="g42"><path
         d="M 0,0 -4.593,-3.284 -2.89,2.101 -7.433,5.454 -1.786,5.499 0,10.855 1.786,5.499 7.434,5.454 2.891,2.101 4.594,-3.284 0,0 z"
         id="path44"
         style="fill:#fff200;fill-opacity:1;fill-rule:nonzero;stroke:none"
         inkscape:connector-curvature="0" /></g><path
       inkscape:connector-curvature="0"
       style="fill:#ffffff;fill-opacity:1;fill-rule:nonzero;stroke:none"
       id="path56"
       d="m 90.642255,39.7425 c -28.11875,0 -50.9025,22.8575 -50.9025,50.9775 0,28.1175 22.78375,50.97625 50.9025,50.97625 28.116255,0 50.979995,-22.85875 50.979995,-50.97625 0,-28.1175 -22.86374,-50.9775 -50.979995,-50.9775" /><path
       inkscape:connector-curvature="0"
       style="fill:#ffffff;fill-opacity:1;fill-rule:nonzero;stroke:none"
       id="path60"
       d="m 90.642255,43.5695 c -26.005,0 -47.07125,21.14 -47.07125,47.15125 0,26.005 21.06625,47.145 47.07125,47.145 26.005005,0 47.151245,-21.14 47.151245,-47.145 0,-26.00625 -21.14624,-47.15125 -47.151245,-47.15125" /><path
       inkscape:connector-curvature="0"
       style="fill:#121212;fill-opacity:1;fill-rule:nonzero;stroke:none"
       id="path64"
       d="m 92.90188,64.226125 c 17.27125,0.5375 27.315,8.395 27.315,19.9225 0,10.53625 -6.515,16.301245 -27.95625,20.106245 -15.96875,2.83626 -20.19375,6.6875 -20.19375,13.26376 0,4.03 1.34625,7.11499 3.7025,9.87874 -3.58625,-2.25374 -6.47,-6.90375 -6.47,-12.1675 0,-3.23375 0.95625,-6.29875 3.1225,-8.89375 l 0,-37.668745 c -0.53375,-0.035 -1.07125,-0.05 -1.6225,-0.05 -0.23875,0 -0.4725,0.01 -0.69875,0.0225 -0.29375,0.02 -0.3825,-0.32 -0.07625,-0.44875 0.74,-0.31125 1.54125,-0.615 2.3975,-0.90375 l 0,-7.9175 c 0,-0.1625 0.1275,-0.2925 0.2925,-0.2925 l 4.2925,0 c 0.16125,0 0.295,0.13 0.295,0.2925 l 0,6.565 c 5.1275,-1.1775 10.99375,-1.8525 15.6,-1.70875 m -15.6,38.217495 c 0.58125,-0.31624 1.205,-0.615 1.85625,-0.89624 7.76625,-3.347505 11.60875,-9.230005 11.60875,-16.471255 0,-7.1825 -5.30625,-13.4375 -13.465,-15.625 l 0,32.992495 z" /><path
       inkscape:connector-curvature="0"
       style="fill:#00adef;fill-opacity:1;fill-rule:nonzero;stroke:none"
       id="path68"
       d="m 90.642255,43.5695 c -26.005,0 -47.07125,21.14 -47.07125,47.15125 0,26.0025 21.06625,47.145 47.07125,47.145 26.005005,0 47.151245,-21.1425 47.151245,-47.145 0,-26.00625 -21.14624,-47.15125 -47.151245,-47.15125 m 0.0025,4.52125 c 23.561255,0 42.627495,19.07 42.627495,42.63 0,23.55625 -19.06624,42.625 -42.627495,42.625 -23.5525,0 -42.55375,-19.06875 -42.55375,-42.625 0,-23.56 19.00125,-42.63 42.55375,-42.63" /></g></svg>